<svg width="56" height="56" viewBox="0 0 56 56" fill="none" xmlns="http://www.w3.org/2000/svg">
<path fill-rule="evenodd" clip-rule="evenodd" d="M44.456 18.4276C40.042 21.93 34.5114 23.9423 28.8813 24.0946C23.7054 24.2368 18.6028 25.5444 13.969 27.8164C9.16316 26.7358 4.49098 24.605 0.620095 21.5342C0.0673136 21.0952 -0.142577 20.3517 0.0993604 19.6885L6.94274 1.07888C7.12222 0.58374 7.52909 0.20563 8.03703 0.0614738C8.54661 -0.0811512 9.08966 0.0277863 9.50145 0.353068L10.0974 0.814521C15.016 4.51708 20.8704 6.67407 27.0291 6.84229C34.0707 7.03621 40.9872 9.55315 46.5036 13.9303C47.0579 14.3694 47.2678 15.1128 47.0258 15.776L46.3785 17.5538C45.6869 17.7208 45.0203 17.9806 44.456 18.4276ZM33.4282 19.5575C32.5768 19.2477 31.6353 19.6866 31.3254 20.5382C31.0155 21.3896 31.4545 22.3311 32.3059 22.6408C33.1575 22.9508 34.0989 22.5119 34.4088 21.6603C34.7187 20.8089 34.2798 19.8674 33.4282 19.5575ZM25.3005 13.1084C22.7546 12.1808 19.9203 13.5009 18.9927 16.05C18.0592 18.6113 19.3814 21.4273 21.9343 22.3578C24.4825 23.2883 27.3155 21.965 28.2421 19.4161C29.1713 16.8671 27.8511 14.036 25.3005 13.1084ZM14.9281 12.8242C14.0765 12.5143 13.1351 12.9532 12.8252 13.8048C12.5153 14.6561 12.9543 15.5975 13.8058 15.9074C14.6572 16.2174 15.5987 15.7784 15.9086 14.9268C16.2184 14.0755 15.7795 13.1341 14.9281 12.8242ZM25.1615 18.2943C24.8581 19.1241 23.9445 19.5875 23.0579 19.2749C22.1992 18.9606 21.7708 18.0186 22.0774 17.1713C22.3832 16.3349 23.3042 15.8781 24.181 16.1907C25.0398 16.5047 25.4681 17.447 25.1615 18.2943ZM15.7063 54.9189C15.8857 55.4156 16.2943 55.7937 16.8006 55.9363C17.3221 56.0837 17.864 55.9638 18.2682 55.6431C23.2333 51.7033 29.4578 49.3285 35.7928 49.1555C42.8343 48.9617 49.8602 46.4446 55.3781 42.0674C55.9309 41.6284 56.1408 40.885 55.8988 40.2217L49.0556 21.7215C48.8761 21.2248 48.4676 20.8467 47.9613 20.7041C47.4518 20.5599 46.9087 20.6689 46.4937 20.9973C41.5285 24.9371 35.3041 27.2025 28.9691 27.374C21.9292 27.5678 15.0125 30.0849 9.49464 34.4636C8.94033 34.9026 8.73044 35.646 8.97237 36.3093L15.7063 54.9189ZM41.0701 33.3566C41.9217 33.0467 42.8631 33.4858 43.173 34.3372C43.4829 35.1887 43.044 36.1301 42.1924 36.44C41.341 36.7499 40.3995 36.3108 40.0896 35.4594C39.7797 34.6079 40.2187 33.6666 41.0701 33.3566ZM30.6979 33.64C33.2485 32.7124 36.0795 34.0325 37.0056 36.5816C37.9349 39.1307 36.6147 41.9617 34.064 42.8894C31.5225 43.8155 28.6933 42.5189 27.7562 39.9478C26.827 37.3987 28.1471 34.5676 30.6979 33.64ZM22.57 40.0902C23.4214 39.7803 24.3629 40.2193 24.6728 41.0707C24.9827 41.9223 24.5437 42.8637 23.6923 43.1736C22.8407 43.4834 21.8993 43.0444 21.5894 42.193C21.2795 41.3414 21.7185 40.3999 22.57 40.0902ZM33.9233 37.703C34.2295 38.5494 33.8025 39.4922 32.9427 39.8067C32.0806 40.1207 31.1475 39.6693 30.8391 38.8261C30.5328 37.9797 30.9598 37.037 31.8196 36.7225C32.6968 36.4097 33.6174 36.8671 33.9233 37.703Z" fill="url(#paint0_linear_2462_4297)"/>
<defs>
<linearGradient id="paint0_linear_2462_4297" x1="27.9991" y1="0" x2="27.9991" y2="55.9987" gradientUnits="userSpaceOnUse">
<stop stop-color="#51B265"/>
<stop offset="1" stop-color="#51B265" stop-opacity="0"/>
</linearGradient>
</defs>
</svg>
