<svg width="56" height="56" viewBox="0 0 56 56" fill="none" xmlns="http://www.w3.org/2000/svg">
<g clip-path="url(#clip0_2462_4313)">
<path fill-rule="evenodd" clip-rule="evenodd" d="M32.75 14.7439V1.099C32.75 0.474021 33.2709 -0.0302272 33.8952 0.00141186C45.3365 0.581682 54.5847 9.80788 55.0313 21.4073C55.0552 22.0272 54.5533 22.5405 53.933 22.5405H41.3892C39.4491 19.0866 36.4105 16.3281 32.75 14.7439ZM42.2656 38.4666C43.5103 35.5431 43.9165 32.4482 43.6015 29.4573H53.9077C54.5406 29.4573 55.0486 29.9912 55.0043 30.6225C54.6239 36.0458 52.0567 40.8652 48.177 44.204C47.6981 44.616 46.973 44.5475 46.5863 44.0479L42.2656 38.4677V38.4666ZM25.7615 49.5219C15.7746 49.6251 7.52152 41.5281 7.44078 31.541C7.35937 21.4758 15.5243 13.2608 25.5712 13.2608V7.90954C25.5712 7.28335 25.0484 6.78239 24.4228 6.81107C11.3663 7.41089 0.963 18.1863 0.962891 31.3919C0.962891 45.0088 12.1161 56.0872 25.7327 55.9996C30.8678 55.9666 35.628 54.3614 39.5576 51.6416C40.0746 51.2838 40.1834 50.5637 39.7985 50.0664L36.5216 45.8339C33.5236 48.1117 29.7991 49.4801 25.7615 49.5219ZM25.5735 46.2271C17.3935 46.2271 10.7383 39.5719 10.7383 31.3919C10.7383 23.2118 17.3935 16.5566 25.5735 16.5566C33.7527 16.5566 40.4087 23.2121 40.4087 31.3919C40.4087 39.5732 33.7527 46.2271 25.5735 46.2271ZM27.2214 23.1086V21.5365C27.2214 20.6269 26.4842 19.8886 25.5735 19.8886C24.6639 19.8886 23.9256 20.6269 23.9256 21.5365V23.1086C20.7348 23.1086 18.7601 25.508 18.7601 28.0742C18.7601 30.8118 20.988 33.0397 23.7268 33.0397H27.4213C28.3419 33.0397 29.0912 33.789 29.0912 34.7096C29.0912 35.6396 28.339 36.3805 27.4213 36.3805H23.5356C23.0469 36.3741 22.5557 36.1905 22.1602 35.9136C21.4132 35.3951 20.386 35.5807 19.8675 36.3289C19.3489 37.0759 19.5346 38.1031 20.2816 38.6216C21.6213 39.5506 22.7649 39.6763 23.9256 39.6763V41.2472C23.9256 42.1568 24.6639 42.8951 25.5735 42.8951C26.4842 42.8951 27.2214 42.1568 27.2214 41.2472V39.6763C30.4192 39.6763 32.3869 37.2677 32.3869 34.7096C32.3869 31.9719 30.159 29.744 27.4213 29.744H23.7268C22.8051 29.744 22.0559 28.9948 22.0559 28.0742C22.0559 27.1526 22.8021 26.4043 23.7257 26.4043H27.2884C27.9398 26.4098 28.5836 26.702 29.056 27.2052C29.6869 27.8752 30.7255 27.8988 31.385 27.281C32.0485 26.6592 32.0826 25.6155 31.4608 24.952C30.4063 23.8272 28.9108 23.1086 27.2214 23.1086Z" fill="url(#paint0_linear_2462_4313)"/>
</g>
<defs>
<linearGradient id="paint0_linear_2462_4313" x1="27.9975" y1="0" x2="27.9975" y2="56.0002" gradientUnits="userSpaceOnUse">
<stop stop-color="#51B265"/>
<stop offset="1" stop-color="#51B265" stop-opacity="0"/>
</linearGradient>
<clipPath id="clip0_2462_4313">
<rect width="56" height="56" fill="white"/>
</clipPath>
</defs>
</svg>
