<svg width="56" height="56" viewBox="0 0 56 56" fill="none" xmlns="http://www.w3.org/2000/svg">
<path fill-rule="evenodd" clip-rule="evenodd" d="M51.6961 6.78756L55.9305 30.8018C56.3496 33.1785 54.7626 35.445 52.3858 35.864L48.0661 36.6257V35.1698V27.7356V24.6712C48.0661 20.4545 44.6355 17.024 40.4188 17.024H7.1804L6.77221 14.7088C6.35308 12.3321 7.94011 10.0656 10.3168 9.64652C10.3168 9.64652 47.1459 3.17578 47.3978 3.17578C49.4785 3.17578 51.3223 4.66744 51.6961 6.78756ZM0 38.4472H44.791V48.4562C44.791 50.8695 42.8345 52.826 40.4212 52.826H4.36986C1.9565 52.826 0 50.8695 0 48.4562V38.4472ZM5.57561 48.889H13.0098C13.9149 48.889 14.6485 48.1553 14.6485 47.2503C14.6485 46.3454 13.9148 45.6117 13.0098 45.6117H5.57561C4.67064 45.6117 3.93695 46.3454 3.93695 47.2503C3.93695 48.1553 4.67064 48.889 5.57561 48.889ZM0.00585938 24.4583H44.7861C44.6749 22.1438 42.7635 20.3015 40.4216 20.3015H4.37036C2.02842 20.3015 0.116984 22.1438 0.00585938 24.4583ZM44.791 27.7355H0V35.1697H44.791V27.7355Z" fill="url(#paint0_linear_2462_4305)"/>
<defs>
<linearGradient id="paint0_linear_2462_4305" x1="27.9988" y1="3.17578" x2="27.9988" y2="52.826" gradientUnits="userSpaceOnUse">
<stop stop-color="#51B265"/>
<stop offset="1" stop-color="#51B265" stop-opacity="0"/>
</linearGradient>
</defs>
</svg>
