<svg width="56" height="56" viewBox="0 0 56 56" fill="none" xmlns="http://www.w3.org/2000/svg">
<path fill-rule="evenodd" clip-rule="evenodd" d="M5.57812 18.1563C5.57812 19.0623 4.84356 19.7969 3.9375 19.7969C3.03144 19.7969 2.29688 19.0623 2.29688 18.1563V7.21954V7.21812V7.1094H2.30103C2.34402 6.42187 2.79103 5.75971 3.64405 5.60462L27.7065 1.22962C27.9007 1.19429 28.0995 1.19429 28.2936 1.22962L52.3561 5.60462C54.1522 5.93121 54.1522 8.50634 52.3561 8.83293L28.2936 13.2079C28.0994 13.2433 27.9006 13.2433 27.7065 13.2079L5.57812 9.18457V18.1563ZM52.7188 51.5156H54.3594C55.2654 51.5156 56 52.2502 56 53.1562C56 54.0623 55.2654 54.7969 54.3594 54.7969H3.28125C1.46902 54.7969 0 53.3279 0 51.5156V46.0469C0 44.2346 1.46902 42.7656 3.28125 42.7656H54.3594C55.2654 42.7656 56 43.5002 56 44.4062C56 45.3123 55.2654 46.0469 54.3594 46.0469H52.7188V47.1406H8.20312C7.29706 47.1406 6.5625 47.8752 6.5625 48.7812C6.5625 49.6873 7.29706 50.4219 8.20312 50.4219H52.7188V51.5156ZM28.8805 16.4363C28.5911 16.4889 28.2947 16.5157 28 16.5157C27.7053 16.5157 27.4089 16.4889 27.1191 16.4362L12.1406 13.7128V24.1718H43.8594V13.7128L28.8805 16.4363ZM48.2344 31.8281H12.6875C11.7814 31.8281 11.0469 32.5627 11.0469 33.4687C11.0469 34.3748 11.7814 35.1094 12.6875 35.1094H48.2344V36.2031H49.875C50.7811 36.2031 51.5156 36.9377 51.5156 37.8437C51.5156 38.7498 50.7811 39.4844 49.875 39.4844H7.76562C5.95339 39.4844 4.48438 38.0154 4.48438 36.2031V30.7344C4.48438 28.9221 5.95339 27.4531 7.76562 27.4531H49.875C50.7811 27.4531 51.5156 28.1877 51.5156 29.0937C51.5156 29.9998 50.7811 30.7344 49.875 30.7344H48.2344V31.8281Z" fill="url(#paint0_linear_2462_4336)"/>
<defs>
<linearGradient id="paint0_linear_2462_4336" x1="28" y1="1.20312" x2="28" y2="54.7969" gradientUnits="userSpaceOnUse">
<stop stop-color="#51B265"/>
<stop offset="1" stop-color="#51B265" stop-opacity="0"/>
</linearGradient>
</defs>
</svg>
