<svg width="56" height="56" viewBox="0 0 56 56" fill="none" xmlns="http://www.w3.org/2000/svg">
<g clip-path="url(#clip0_2462_4322)">
<path fill-rule="evenodd" clip-rule="evenodd" d="M43.6212 2.35221L45.4848 0.488565C47.0788 -0.991716 49.2851 1.21547 47.805 2.80874L45.9413 4.67238C45.3004 5.31331 44.2617 5.31288 43.6212 4.67238C42.9804 4.03166 42.9804 2.99282 43.6212 2.35221ZM10.0668 4.67245C11.66 6.15251 13.8676 3.94642 12.387 2.35228L10.5234 0.488636C9.88276 -0.151974 8.84391 -0.151974 8.2032 0.488636C7.56248 1.12925 7.56248 2.16809 8.2032 2.80881L10.0668 4.67245ZM51.7344 18.6471H54.3703C56.5443 18.7275 56.5436 21.8483 54.3703 21.9283H51.7344C50.8283 21.9283 50.0938 21.1938 50.0938 20.2877C50.0938 19.3817 50.8283 18.6471 51.7344 18.6471ZM1.64648 18.6471H4.28242C6.45636 18.7275 6.45559 21.8483 4.28242 21.9284H1.64648C0.740422 21.9284 0.00585938 21.1938 0.00585938 20.2878C0.00585938 19.3817 0.740422 18.6471 1.64648 18.6471ZM43.6233 38.2231C42.1428 36.6291 44.3502 34.423 45.9434 35.9029L47.8071 37.7666C48.4478 38.4073 48.4478 39.4461 47.8071 40.0867C47.1661 40.7277 46.1274 40.7272 45.4869 40.0867L43.6233 38.2231ZM10.0668 35.903L8.2032 37.7667C7.56248 38.4073 7.56248 39.4461 8.2032 40.0868C8.8437 40.7273 9.88243 40.7278 10.5234 40.0868L12.387 38.2232C13.8672 36.6299 11.6608 34.4226 10.0668 35.903ZM35.7161 21.9284L32.6219 25.0226C34.3469 28.3591 31.7804 32.5228 28.0071 32.4724C25.1645 32.4724 22.8519 30.1598 22.8519 27.3171C22.8018 23.5441 26.9652 20.9771 30.3017 22.7024L33.8764 19.1276C34.184 18.8199 34.6013 18.647 35.0364 18.647H46.2681C43.7256 -3.46693 12.2806 -3.45074 9.74609 18.647H20.2983L23.3925 15.5528C21.6675 12.2164 24.2341 8.05265 28.0073 8.10307C30.8499 8.10307 33.1626 10.4157 33.1626 13.2583C33.2127 17.0313 29.0493 19.5984 25.7127 17.8729L22.1381 21.4477C21.8305 21.7554 21.4131 21.9283 20.978 21.9283H9.7473C10.1609 26.5115 12.2934 30.787 15.7435 33.8509C17.6223 35.5877 18.8411 37.9215 19.2147 40.4267C19.2188 40.4261 36.7936 40.4261 36.7997 40.4267C37.1731 37.9221 38.392 35.588 40.2711 33.8509C43.7212 30.7871 45.8538 26.5115 46.2673 21.9283H35.7161V21.9284ZM26.3672 54.0939C22.3686 53.3247 19.3379 49.8014 19.3379 45.5818V43.7077H36.6779V45.5818C36.6779 49.8014 33.6471 53.3247 29.6485 54.0939C29.8123 56.6344 26.2041 56.6359 26.3672 54.0939ZM29.8823 13.2585C29.8823 12.2252 29.0415 11.3844 28.0083 11.3844C25.5256 11.4787 25.5262 15.0385 28.0083 15.1325C29.0415 15.1324 29.8823 14.2917 29.8823 13.2585ZM28.0068 29.1911C26.9736 29.1911 26.1328 28.3503 26.1328 27.317C26.1328 26.2838 26.9736 25.4431 28.0068 25.4431C30.4889 25.537 30.4895 29.0968 28.0068 29.1911Z" fill="url(#paint0_linear_2462_4322)"/>
</g>
<defs>
<linearGradient id="paint0_linear_2462_4322" x1="28.0032" y1="0" x2="28.0032" y2="55.9998" gradientUnits="userSpaceOnUse">
<stop stop-color="#51B265"/>
<stop offset="1" stop-color="#51B265" stop-opacity="0"/>
</linearGradient>
<clipPath id="clip0_2462_4322">
<rect width="56" height="56" fill="white"/>
</clipPath>
</defs>
</svg>
