<svg width="56" height="56" viewBox="0 0 56 56" fill="none" xmlns="http://www.w3.org/2000/svg">
<g clip-path="url(#clip0_2462_4344)">
<path fill-rule="evenodd" clip-rule="evenodd" d="M55.9009 1.60032C55.8419 0.788981 55.1959 0.147685 54.3871 0.0870161C50.3578 -0.216328 46.3442 0.279277 42.4102 1.4824C42.7062 4.18516 44.1042 7.11008 46.4908 9.49668C48.906 11.9115 51.9104 13.309 54.6614 13.5705C55.721 9.85727 56.2234 5.88047 55.9009 1.60032ZM32.5699 23.4176C30.6512 21.4984 30.6512 18.3766 32.5699 16.4574C34.4891 14.5382 37.6114 14.5382 39.5306 16.4574C41.4498 18.3766 41.4498 21.4984 39.5306 23.4176C37.6114 25.3368 34.4891 25.3368 32.5699 23.4176ZM0.480565 26.4835L5.12088 21.8432C9.06735 17.8967 13.6658 17.3998 15.0573 18.2919C12.6515 21.4348 10.3798 24.8946 8.26584 28.6531C6.77988 28.272 4.57315 28.5561 2.06522 29.2286C1.34232 29.4221 0.582676 29.0987 0.219945 28.4638C-0.151759 27.8204 -0.0440932 27.0082 0.480565 26.4835ZM8.4782 37.7799C7.97875 37.28 7.85528 36.5157 8.17229 35.8833C8.21435 35.7999 8.27404 35.6782 8.35136 35.5205L8.35138 35.5205C8.73432 34.7396 9.54975 33.0767 10.7981 30.8188L13.3791 33.4002C13.3257 33.4493 13.2716 33.4877 13.2176 33.526C13.154 33.5711 13.0905 33.6162 13.0279 33.6787C11.3895 35.3168 10.0385 36.8075 8.87938 38.1811L8.4782 37.7799ZM17.8145 47.1152C19.1804 45.9552 20.6672 44.6017 22.3095 42.9594C22.3727 42.8964 22.4181 42.8326 22.4635 42.7687C22.5016 42.7151 22.5397 42.6614 22.5885 42.6082L25.2913 45.3109C23.0567 46.5554 21.7531 47.2099 20.885 47.6457L20.8841 47.6461C20.6504 47.7634 20.4483 47.8649 20.2681 47.9577C19.6337 48.2842 18.8621 48.1628 18.3579 47.6587L17.8145 47.1152ZM21.4328 34.5553C20.2472 33.3697 16.913 34.4327 15.3467 35.9986C10.107 41.2383 7.74047 44.9532 6.67791 47.1467C6.37329 47.7752 6.50018 48.5276 6.99408 49.0215C7.48883 49.5166 8.24249 49.6422 8.87139 49.3376C11.0157 48.2964 14.6854 45.941 19.9875 40.6393C21.7097 38.9162 22.5595 35.6824 21.4341 34.5566L21.4328 34.5553ZM27.7681 55.8238C28.4 56.1433 29.1652 56.0199 29.6655 55.5191L34.3062 50.8788C37.8989 47.2853 38.5313 42.6488 37.7161 41.1786C34.211 43.8203 30.6601 46.0509 27.3473 47.9184C27.5758 49.2091 27.4237 50.4614 26.8833 54.1186C26.7777 54.8266 27.1435 55.5114 27.7681 55.8238ZM39.2373 2.62443C39.7722 5.81254 41.4393 9.08695 44.1694 11.817C46.9439 14.5916 50.3205 16.2617 53.5863 16.7552C48.8648 28.8031 37.7616 37.8585 28.2246 43.6063L24.4003 39.782C25.427 37.2557 25.7034 34.1859 23.753 32.2351C21.8052 30.2877 18.7342 30.559 16.2045 31.5861L12.502 27.8836C19.9544 15.4884 29.3854 6.66489 39.2373 2.62443ZM30.248 25.738C33.4464 28.9359 38.6507 28.9359 41.8486 25.738C45.047 22.5396 45.047 17.3354 41.8486 14.137C38.6507 10.9391 33.4464 10.9391 30.248 14.137C27.0497 17.3349 27.0497 22.5396 30.248 25.738Z" fill="url(#paint0_linear_2462_4344)"/>
</g>
<defs>
<linearGradient id="paint0_linear_2462_4344" x1="27.9988" y1="0" x2="27.9988" y2="55.9999" gradientUnits="userSpaceOnUse">
<stop stop-color="#51B265"/>
<stop offset="1" stop-color="#51B265" stop-opacity="0"/>
</linearGradient>
<clipPath id="clip0_2462_4344">
<rect width="56" height="56" fill="white"/>
</clipPath>
</defs>
</svg>
